<?xml version="1.0" encoding="UTF-8"?>
<svg id="Livello_2" data-name="Livello 2" xmlns="http://www.w3.org/2000/svg" viewBox="0 0 178.84 194.37">
  <defs>
    <style>
      .cls-1 {
        fill: #000;
        stroke-width: 0px;
      }
    </style>
  </defs>
  <g id="Livello_1-2" data-name="Livello 1">
    <g>
      <path class="cls-1" d="M89.32,172.29c-7.2,0-14.4.02-21.61,0-8-.03-13.11-5.1-13.14-13.13-.02-4.77.19-9.63-2.05-13.97-1.73-3.34-3.72-6.68-6.23-9.46-8.54-9.45-13.91-20.27-15.74-32.91-3.39-23.39,8.36-47.51,29.03-59.37,35.28-20.23,79.66-.54,87.94,39.31,4.01,19.3-.78,36.67-13.86,51.51-4.26,4.83-7.96,9.85-8.96,16.35-.41,2.67-.37,5.41-.4,8.13-.09,8.53-5.06,13.54-13.58,13.55-7.13.01-14.27,0-21.4,0ZM89.46,160.6c6.66,0,13.31,0,19.97,0,3.13,0,3.1,0,3.15-3.04.04-2.44-.02-4.91.29-7.32,1.11-8.64,4.91-16.01,10.82-22.35,9.95-10.67,14.45-23.24,13.1-37.82-2.45-26.35-26.74-46.02-53.02-42.51-18.91,2.52-32.33,12.94-38.95,30.79-6.56,17.7-3.27,34.23,9.37,48.35,8.16,9.12,12.76,19.26,12.04,31.58-.12,1.99.67,2.38,2.45,2.36,6.93-.08,13.86-.03,20.78-.03Z"/>
      <path class="cls-1" d="M89.3,194.34c-5.29,0-10.59.05-15.88-.02-3.11-.04-5.31-2.03-5.79-4.97-.43-2.62,1-5.23,3.54-6.21.8-.31,1.71-.46,2.58-.46,10.45-.03,20.91-.04,31.36,0,3.02.01,5.12,1.55,5.91,4.08.72,2.33.01,5.05-2.05,6.32-1.2.74-2.76,1.18-4.18,1.22-5.16.14-10.32.06-15.48.06h0Z"/>
      <path class="cls-1" d="M29,28.92c.24-2.96,1.25-4.78,3.41-5.81,2.15-1.02,4.36-.9,6.09.7,3.14,2.89,6.19,5.89,9.08,9.03,2.04,2.22,1.73,5.68-.34,7.76-2.12,2.13-5.48,2.49-7.74.45-3.17-2.86-6.17-5.91-9.07-9.04-.85-.92-1.11-2.38-1.43-3.1Z"/>
      <path class="cls-1" d="M149.82,29.12c-.43.79-.95,2.38-1.98,3.52-2.45,2.72-5.1,5.25-7.73,7.79-2.63,2.54-6.15,2.56-8.54.15-2.37-2.38-2.25-5.9.34-8.53,2.61-2.66,5.23-5.32,7.93-7.89,1.83-1.74,4.05-2.16,6.4-1.14,2.26.99,3.36,2.84,3.58,6.09Z"/>
      <path class="cls-1" d="M95.24,11.53c0,1.9.05,3.81-.01,5.71-.12,3.41-2.54,5.88-5.74,5.94-3.18.05-5.78-2.4-5.87-5.78-.1-3.94-.11-7.88.01-11.82C83.73,2.26,86.23-.01,89.43,0c3.2.01,5.63,2.32,5.78,5.62.09,1.97.02,3.94.02,5.91,0,0,0,0,.01,0Z"/>
      <path class="cls-1" d="M11.56,88.68c-1.97,0-3.94.06-5.91-.01-3.2-.12-5.53-2.46-5.65-5.55-.12-3.23,2.06-5.87,5.34-6.01,4.13-.17,8.29-.17,12.42,0,3.17.13,5.42,2.74,5.39,5.8-.03,3.15-2.43,5.63-5.69,5.76-1.97.08-3.94.01-5.91.02Z"/>
      <path class="cls-1" d="M167.31,88.68c-1.97,0-3.94.06-5.91-.01-3.28-.12-5.67-2.54-5.72-5.71-.06-3.17,2.22-5.75,5.52-5.87,4.07-.15,8.15-.15,12.22.01,3.29.14,5.52,2.76,5.41,5.96-.1,3.09-2.43,5.47-5.61,5.6-1.97.08-3.94.02-5.91.02Z"/>
      <path class="cls-1" d="M82.6,62.41c2.97.04,5.33,1.96,5.89,4.64.55,2.61-.88,5.4-3.43,6.5-1.24.53-2.6.8-3.83,1.34-6.4,2.81-10.65,7.55-12.63,14.28-1.16,3.93-4.24,5.8-7.66,4.69-2.81-.92-4.64-3.87-3.89-6.74,3.31-12.7,11.37-20.82,23.93-24.52.26-.08.53-.1.8-.13.34-.04.68-.05.81-.06Z"/>
    </g>
  </g>
</svg>